<?xml version="1.0" encoding="utf-8"?>
<svg width="120" height="40" viewBox="0 0 120 40" fill="none" xmlns="http://www.w3.org/2000/svg">
  <path d="M35.1251 11.3613C33.9395 9.77344 32.4297 8.49805 30.5957 7.53125C28.7617 6.56445 26.7432 6.08105 24.5403 6.08105C22.3374 6.08105 20.3271 6.56445 18.5093 7.53125C16.6915 8.49805 15.1817 9.77344 13.9799 11.3613C12.7943 12.9492 11.8682 14.7422 11.2017 16.7402C10.5352 18.7383 10.2019 20.8477 10.2019 23.0684C10.2019 25.2891 10.5352 27.3984 11.2017 29.3965C11.8682 31.3945 12.7943 33.1875 13.9799 34.7754C15.1817 36.3633 16.6915 37.6387 18.5093 38.6055C20.3271 39.5723 22.3374 40.0557 24.5403 40.0557C26.7432 40.0557 28.7617 39.5723 30.5957 38.6055C32.4297 37.6387 33.9395 36.3633 35.1251 34.7754C36.3269 33.1875 37.2448 31.3945 37.8789 29.3965C38.513 27.3984 38.8301 25.2891 38.8301 23.0684C38.8301 20.8477 38.513 18.7383 37.8789 16.7402C37.2448 14.7422 36.3269 12.9492 35.1251 11.3613ZM24.5403 35.4004C21.1274 35.4004 18.3135 34.1494 16.0944 31.6475C13.8916 29.1455 12.7943 26.4004 12.7943 23.0684C12.7943 19.7363 13.8916 16.9912 16.0944 14.4893C18.3135 11.9873 21.1274 10.7363 24.5403 10.7363C27.9694 10.7363 30.7833 11.9873 32.9862 14.4893C35.2053 16.9912 36.3107 19.7363 36.3107 23.0684C36.3107 26.4004 35.2053 29.1455 32.9862 31.6475C30.7833 34.1494 27.9694 35.4004 24.5403 35.4004Z" fill="#E6007E"/>
  <path d="M66.8121 11.3613C65.6265 9.77344 64.1167 8.49805 62.2827 7.53125C60.4487 6.56445 58.4302 6.08105 56.2273 6.08105C54.0244 6.08105 52.0141 6.56445 50.1963 7.53125C48.3785 8.49805 46.8687 9.77344 45.6669 11.3613C44.4813 12.9492 43.5552 14.7422 42.8887 16.7402C42.2222 18.7383 41.8889 20.8477 41.8889 23.0684C41.8889 25.2891 42.2222 27.3984 42.8887 29.3965C43.5552 31.3945 44.4813 33.1875 45.6669 34.7754C46.8687 36.3633 48.3785 37.6387 50.1963 38.6055C52.0141 39.5723 54.0244 40.0557 56.2273 40.0557C58.4302 40.0557 60.4487 39.5723 62.2827 38.6055C64.1167 37.6387 65.6265 36.3633 66.8121 34.7754C68.0139 33.1875 68.9318 31.3945 69.5659 29.3965C70.2 27.3984 70.5171 25.2891 70.5171 23.0684C70.5171 20.8477 70.2 18.7383 69.5659 16.7402C68.9318 14.7422 68.0139 12.9492 66.8121 11.3613ZM56.2273 35.4004C52.8144 35.4004 50.0005 34.1494 47.7814 31.6475C45.5786 29.1455 44.4813 26.4004 44.4813 23.0684C44.4813 19.7363 45.5786 16.9912 47.7814 14.4893C50.0005 11.9873 52.8144 10.7363 56.2273 10.7363C59.6564 10.7363 62.4703 11.9873 64.6732 14.4893C66.8923 16.9912 67.9977 19.7363 67.9977 23.0684C67.9977 26.4004 66.8923 29.1455 64.6732 31.6475C62.4703 34.1494 59.6564 35.4004 56.2273 35.4004Z" fill="#E6007E"/>
  <path d="M98.4991 11.3613C97.3135 9.77344 95.8037 8.49805 93.9697 7.53125C92.1357 6.56445 90.1172 6.08105 87.9143 6.08105C85.7114 6.08105 83.7011 6.56445 81.8833 7.53125C80.0655 8.49805 78.5557 9.77344 77.3539 11.3613C76.1683 12.9492 75.2422 14.7422 74.5757 16.7402C73.9092 18.7383 73.5759 20.8477 73.5759 23.0684C73.5759 25.2891 73.9092 27.3984 74.5757 29.3965C75.2422 31.3945 76.1683 33.1875 77.3539 34.7754C78.5557 36.3633 80.0655 37.6387 81.8833 38.6055C83.7011 39.5723 85.7114 40.0557 87.9143 40.0557C90.1172 40.0557 92.1357 39.5723 93.9697 38.6055C95.8037 37.6387 97.3135 36.3633 98.4991 34.7754C99.7009 33.1875 100.619 31.3945 101.253 29.3965C101.887 27.3984 102.204 25.2891 102.204 23.0684C102.204 20.8477 101.887 18.7383 101.253 16.7402C100.619 14.7422 99.7009 12.9492 98.4991 11.3613ZM87.9143 35.4004C84.5014 35.4004 81.6875 34.1494 79.4684 31.6475C77.2656 29.1455 76.1683 26.4004 76.1683 23.0684C76.1683 19.7363 77.2656 16.9912 79.4684 14.4893C81.6875 11.9873 84.5014 10.7363 87.9143 10.7363C91.3434 10.7363 94.1573 11.9873 96.3602 14.4893C98.5793 16.9912 99.6847 19.7363 99.6847 23.0684C99.6847 26.4004 98.5793 29.1455 96.3602 31.6475C94.1573 34.1494 91.3434 35.4004 87.9143 35.4004Z" fill="#E6007E"/>
</svg>
