<svg width="886" height="469" viewBox="0 0 886 469" fill="none" xmlns="http://www.w3.org/2000/svg">
<mask id="mask0_33_1963" style="mask-type:luminance" maskUnits="userSpaceOnUse" x="-17" y="0" width="903" height="523">
<path d="M885.98 0.5H-16.02V522.5H885.98V0.5Z" fill="white"/>
</mask>
<g mask="url(#mask0_33_1963)">
<path d="M-1483.69 426.19C-1415.91 443.1 -1385.36 467.21 -1355.84 490.53C-1325.83 514.22 -1297.49 536.59 -1231.82 552.97C-1166.16 569.35 -1130.62 562.91 -1093.01 556.09C-1055.97 549.41 -1017.7 542.43 -949.92 559.34C-882.14 576.25 -851.61 600.35 -822.06 623.68C-792.06 647.37 -763.78 669.72 -698.05 686.12C-632.32 702.52 -596.85 696.06 -559.24 689.24C-522.2 682.56 -483.93 675.59 -416.15 692.49C-348.37 709.4 -317.84 733.5 -288.31 756.82C-258.29 780.51 -229.94 802.88 -164.26 819.27C-98.5798 835.65 -63.0599 829.21 -25.4299 822.4C11.6201 815.72 49.8701 808.74 117.65 825.65C185.43 842.56 215.93 866.65 245.47 889.98C275.47 913.67 303.82 936.04 369.48 952.42C370.81 952.75 371.94 953.59 372.65 954.76C373.35 955.93 373.56 957.33 373.23 958.66C372.9 959.99 372.06 961.12 370.88 961.83C369.71 962.53 368.31 962.74 366.98 962.41C299.2 945.5 268.65 921.39 239.13 898.07C209.13 874.38 180.78 851.99 115.12 835.61C49.4601 819.23 13.92 825.68 -23.6899 832.5C-60.74 839.18 -98.9999 846.16 -166.78 829.25C-234.56 812.34 -265.09 788.24 -294.62 764.92C-324.64 741.23 -352.98 718.84 -418.63 702.46C-484.28 686.08 -519.83 692.53 -557.46 699.35C-594.5 706.03 -632.76 713.01 -700.54 696.1C-768.32 679.19 -798.85 655.09 -828.4 631.76C-858.4 608.07 -886.74 585.68 -952.41 569.3C-1018.07 552.92 -1053.61 559.37 -1091.22 566.2C-1128.27 572.88 -1166.54 579.86 -1234.32 562.95C-1302.09 546.04 -1332.63 521.94 -1362.15 498.62C-1392.17 474.93 -1420.52 452.54 -1486.18 436.16C-1551.84 419.78 -1587.37 426.24 -1624.99 433.06C-1662.04 439.74 -1700.29 446.72 -1768.07 429.81C-1768.82 429.75 -1769.54 429.53 -1770.19 429.16C-1770.84 428.79 -1771.4 428.29 -1771.84 427.68C-1772.27 427.07 -1772.57 426.38 -1772.71 425.64C-1772.85 424.91 -1772.83 424.15 -1772.65 423.43C-1772.47 422.71 -1772.13 422.03 -1771.66 421.45C-1771.2 420.87 -1770.61 420.4 -1769.94 420.06C-1769.27 419.73 -1768.53 419.55 -1767.79 419.53C-1767.04 419.51 -1766.3 419.65 -1765.61 419.95C-1699.96 436.33 -1664.43 429.89 -1626.8 423.07C-1589.75 416.22 -1551.45 409.28 -1483.69 426.19Z" fill="#DC410F" stroke="#DC410F" stroke-width="12"/>
<path d="M-1407.17 391.11C-1339.39 408.02 -1308.84 432.13 -1279.32 455.45C-1249.32 479.14 -1220.97 501.51 -1155.3 517.89C-1089.64 534.27 -1054.11 527.83 -1016.49 521.01C-979.45 514.33 -941.18 507.36 -873.4 524.26C-805.62 541.17 -775.05 565.19 -745.54 588.6C-715.52 612.29 -687.17 634.67 -621.51 651.05C-555.85 667.43 -520.33 660.99 -482.7 654.17C-445.66 647.49 -407.4 640.51 -339.62 657.42C-271.84 674.33 -241.27 698.35 -211.76 721.76C-181.76 745.45 -153.41 767.82 -87.7496 784.2C-22.0896 800.58 13.4503 794.14 51.0603 787.32C88.1104 780.64 126.37 773.66 194.15 790.57C261.93 807.48 292.48 831.5 321.99 854.9C352.01 878.59 380.35 900.97 446 917.34C447.32 917.67 448.46 918.51 449.17 919.68C449.87 920.85 450.08 922.25 449.75 923.58C449.42 924.91 448.58 926.04 447.41 926.75C446.24 927.45 444.84 927.66 443.51 927.33C375.73 910.42 345.2 886.32 315.67 863C285.68 839.17 257.37 816.79 191.69 800.41C126.01 784.03 90.4904 790.48 52.8804 797.31C15.8303 803.99 -22.4297 810.96 -90.2097 794.06C-157.99 777.15 -188.52 753.05 -217.98 729.74C-248.07 706.03 -276.41 683.64 -342.14 667.25C-407.87 650.85 -443.33 657.33 -480.95 664.15C-518 670.83 -556.25 677.81 -624.03 660.9C-691.81 643.99 -722.36 619.88 -751.89 596.56C-781.89 572.87 -810.24 550.48 -875.9 534.1C-941.56 517.72 -977.1 524.17 -1014.71 531C-1051.76 537.68 -1090.02 544.66 -1157.8 527.75C-1225.58 510.84 -1256.12 486.74 -1285.66 463.41C-1315.66 439.72 -1344 417.33 -1409.67 400.95C-1475.33 384.57 -1510.87 391.02 -1548.48 397.85C-1585.53 404.53 -1623.8 411.5 -1691.58 394.6C-1692.32 394.54 -1693.04 394.32 -1693.69 393.95C-1694.34 393.58 -1694.91 393.08 -1695.34 392.47C-1695.78 391.86 -1696.08 391.17 -1696.22 390.43C-1696.36 389.7 -1696.34 388.94 -1696.16 388.22C-1695.98 387.5 -1695.64 386.82 -1695.17 386.24C-1694.7 385.66 -1694.11 385.19 -1693.44 384.85C-1692.77 384.52 -1692.04 384.34 -1691.29 384.32C-1690.55 384.3 -1689.8 384.44 -1689.12 384.74C-1623.45 401.12 -1587.92 394.68 -1550.29 387.87C-1513.18 381.08 -1474.93 374.23 -1407.16 391.13L-1407.17 391.11Z" fill="#DC410F" stroke="#DC410F" stroke-width="12"/>
<path d="M-1453.49 305.14C-1385.72 322.05 -1355.16 346.16 -1325.64 369.48C-1295.64 393.17 -1267.29 415.54 -1201.63 431.92C-1135.96 448.3 -1100.43 441.86 -1062.82 435.04C-1025.77 428.36 -987.5 421.39 -919.72 438.29C-851.94 455.2 -821.42 479.33 -791.86 502.63C-761.86 526.32 -733.51 548.69 -667.85 565.07C-602.19 581.45 -566.65 575.01 -529.04 568.19C-491.99 561.51 -453.72 554.53 -385.95 571.44C-318.17 588.35 -287.65 612.48 -258.11 635.77C-228.09 659.46 -199.75 681.84 -134.06 698.22C-68.3801 714.6 -32.8901 708.15 4.72986 701.34C41.7799 694.66 80.0298 687.68 147.81 704.59C215.59 721.5 246.11 745.63 275.67 768.93C305.67 792.62 334.02 814.99 399.68 831.37C401.01 831.7 402.15 832.54 402.85 833.71C403.55 834.88 403.76 836.28 403.43 837.61C403.1 838.94 402.26 840.08 401.08 840.78C399.91 841.48 398.51 841.69 397.18 841.36C329.4 824.45 298.85 800.33 269.32 777.02C239.32 753.33 210.97 730.94 145.31 714.56C79.6498 698.18 44.1099 704.63 6.49988 711.46C-30.5502 718.14 -68.8102 725.11 -136.59 708.21C-204.37 691.3 -234.9 667.18 -264.43 643.88C-294.45 620.19 -322.79 597.8 -388.44 581.42C-454.09 565.04 -489.64 571.49 -527.27 578.31C-564.32 584.99 -602.57 591.97 -670.35 575.06C-738.13 558.15 -768.66 534.03 -798.21 510.72C-828.21 487.03 -856.55 464.64 -922.22 448.26C-987.88 431.88 -1023.42 438.33 -1061.03 445.15C-1098.08 451.83 -1136.35 458.8 -1204.13 441.9C-1271.91 424.99 -1302.44 400.87 -1331.97 377.57C-1361.99 353.88 -1390.33 331.49 -1455.99 315.11C-1521.66 298.73 -1557.18 305.19 -1594.81 312C-1631.85 318.68 -1670.11 325.66 -1737.88 308.75C-1738.63 308.69 -1739.35 308.47 -1740 308.1C-1740.65 307.73 -1741.21 307.23 -1741.65 306.62C-1742.09 306.01 -1742.38 305.32 -1742.52 304.58C-1742.67 303.85 -1742.64 303.09 -1742.46 302.37C-1742.28 301.64 -1741.95 300.97 -1741.48 300.39C-1741.01 299.81 -1740.42 299.34 -1739.75 299C-1739.08 298.66 -1738.35 298.49 -1737.6 298.47C-1736.85 298.45 -1736.11 298.59 -1735.42 298.89C-1669.78 315.27 -1634.24 308.83 -1596.61 302.01C-1559.57 295.19 -1521.27 288.22 -1453.5 305.13L-1453.49 305.14Z" fill="#DC410F" stroke="#DC410F" stroke-width="12"/>
<path d="M-1377.51 121.07C-1309.73 137.98 -1279.18 162.1 -1249.65 185.41C-1219.65 209.1 -1191.3 231.49 -1125.64 247.87C-1059.98 264.25 -1024.44 257.8 -986.83 250.98C-949.79 244.3 -911.52 237.33 -843.74 254.23C-775.96 271.14 -745.43 295.26 -715.89 318.57C-685.89 342.26 -657.59 364.55 -591.86 380.94C-526.13 397.34 -490.66 390.87 -453.05 384.05C-416.01 377.37 -377.73 370.4 -309.96 387.3C-242.18 404.21 -211.65 428.33 -182.12 451.63C-152.12 475.4 -123.76 497.71 -58.08 514.1C7.6001 530.49 43.1201 524.03 80.7501 517.21C117.8 510.53 156.05 503.55 223.83 520.46C291.61 537.37 322.14 561.49 351.69 584.8C381.64 608.56 410 630.87 475.67 647.25C477 647.58 478.13 648.42 478.84 649.6C479.54 650.77 479.75 652.17 479.42 653.5C479.09 654.82 478.25 655.96 477.07 656.67C475.9 657.37 474.5 657.58 473.17 657.25C405.39 640.34 374.84 616.22 345.31 592.91C315.31 569.22 286.96 546.83 221.3 530.45C155.64 514.07 120.1 520.52 82.4901 527.35C45.4401 534.03 7.18018 541.01 -60.5999 524.1C-128.38 507.19 -158.91 483.07 -188.44 459.77C-218.46 436.08 -246.8 413.69 -312.45 397.31C-378.1 380.93 -413.65 387.38 -451.28 394.2C-488.33 400.88 -526.58 407.86 -594.36 390.95C-662.14 374.04 -692.67 349.92 -722.22 326.61C-752.22 302.92 -780.56 280.53 -846.23 264.15C-911.89 247.77 -947.43 254.22 -985.05 261.04C-1022.09 267.72 -1060.36 274.69 -1128.14 257.79C-1195.92 240.88 -1226.45 216.76 -1255.98 193.46C-1286 169.77 -1314.34 147.38 -1380.01 131C-1445.67 114.62 -1481.19 121.08 -1518.82 127.89C-1555.87 134.57 -1594.12 141.55 -1661.9 124.64C-1662.64 124.58 -1663.37 124.36 -1664.02 123.99C-1664.67 123.62 -1665.23 123.12 -1665.66 122.51C-1666.1 121.9 -1666.4 121.21 -1666.54 120.48C-1666.68 119.75 -1666.66 118.99 -1666.48 118.27C-1666.3 117.55 -1665.96 116.87 -1665.49 116.29C-1665.02 115.71 -1664.43 115.24 -1663.76 114.9C-1663.09 114.57 -1662.36 114.39 -1661.61 114.37C-1660.87 114.35 -1660.12 114.49 -1659.44 114.79C-1593.79 131.17 -1558.25 124.71 -1520.62 117.89C-1483.6 111.14 -1445.3 104.19 -1377.54 121.09L-1377.51 121.07Z" fill="#DC410F" stroke="#DC410F" stroke-width="12"/>
<path d="M-1516.81 128.43C-1449.03 145.34 -1418.48 169.45 -1388.95 192.75C-1358.95 216.45 -1330.6 238.83 -1264.94 255.21C-1199.28 271.59 -1163.74 265.15 -1126.13 258.31C-1089.08 251.63 -1050.82 244.67 -983.04 261.58C-915.26 278.49 -884.73 302.59 -855.18 325.9C-825.18 349.6 -796.83 371.98 -731.17 388.36C-665.51 404.74 -629.97 398.3 -592.36 391.46C-555.32 384.78 -517.05 377.82 -449.27 394.73C-381.49 411.64 -350.96 435.74 -321.43 459.05C-291.42 482.76 -263.07 505.13 -197.42 521.51C-131.77 537.89 -96.2198 531.45 -58.5898 524.62C-21.5398 517.94 16.7002 510.98 84.4802 527.89C152.26 544.8 182.81 568.85 212.35 592.16C242.35 615.86 270.69 638.24 336.36 654.62C337.69 654.95 338.82 655.79 339.53 656.97C340.23 658.14 340.44 659.54 340.11 660.87C339.78 662.2 338.94 663.34 337.77 664.04C336.6 664.74 335.2 664.95 333.87 664.62C266.09 647.71 235.54 623.59 206.01 600.28C176.01 576.59 147.67 554.2 82.0002 537.82C16.3402 521.44 -19.1998 527.89 -56.8098 534.71C-93.8599 541.39 -132.12 548.37 -199.9 531.46C-267.68 514.55 -298.21 490.43 -327.74 467.13C-357.76 443.44 -386.1 421.05 -451.75 404.67C-517.4 388.29 -552.95 394.74 -590.58 401.56C-627.63 408.24 -665.88 415.22 -733.66 398.31C-801.44 381.4 -831.97 357.28 -861.52 333.97C-891.52 310.28 -919.86 287.89 -985.53 271.51C-1051.2 255.13 -1086.74 261.58 -1124.35 268.4C-1161.39 275.08 -1199.66 282.05 -1267.44 265.15C-1335.22 248.24 -1365.75 224.12 -1395.28 200.82C-1425.3 177.13 -1453.64 154.74 -1519.31 138.36C-1584.97 121.98 -1620.49 128.44 -1658.12 135.26C-1695.17 141.94 -1733.42 148.92 -1801.2 132.01C-1801.94 131.95 -1802.66 131.73 -1803.31 131.36C-1803.96 130.99 -1804.53 130.49 -1804.96 129.88C-1805.4 129.27 -1805.7 128.58 -1805.84 127.84C-1805.98 127.11 -1805.96 126.35 -1805.78 125.63C-1805.6 124.91 -1805.26 124.23 -1804.79 123.65C-1804.32 123.07 -1803.73 122.59 -1803.06 122.26C-1802.39 121.93 -1801.66 121.75 -1800.91 121.73C-1800.17 121.71 -1799.42 121.85 -1798.74 122.15C-1733.09 138.53 -1697.56 132.09 -1659.92 125.26C-1622.87 118.42 -1584.59 111.54 -1516.83 128.44L-1516.81 128.43Z" fill="#DC410F" stroke="#DC410F" stroke-width="12"/>
<path d="M-1376.96 270C-1309.18 286.91 -1278.63 311.02 -1249.1 334.32C-1219.1 358.02 -1190.75 380.4 -1125.09 396.78C-1059.42 413.16 -1023.89 406.72 -986.269 399.89C-949.229 393.21 -910.959 386.25 -843.179 403.16C-775.399 420.07 -744.87 444.17 -715.339 467.48C-685.329 491.19 -656.979 513.56 -591.309 529.94C-525.649 546.32 -490.129 539.88 -452.499 533.04C-415.449 526.36 -377.209 519.4 -309.429 536.31C-241.649 553.22 -211.099 577.33 -181.569 600.63C-151.569 624.33 -123.229 646.71 -57.5594 663.09C8.10059 679.47 43.6406 673.03 81.2506 666.2C118.301 659.52 156.561 652.56 224.341 669.47C292.121 686.38 322.651 710.48 352.181 733.79C382.191 757.5 410.541 779.87 476.191 796.25C477.521 796.58 478.651 797.42 479.361 798.6C480.061 799.77 480.271 801.17 479.941 802.5C479.611 803.82 478.771 804.96 477.601 805.67C476.431 806.37 475.031 806.58 473.701 806.25C405.921 789.34 375.391 765.22 345.861 741.92C315.841 718.23 287.511 695.84 221.851 679.46C156.191 663.08 120.651 669.53 83.0405 676.35C45.9905 683.03 7.73059 690.01 -60.0494 673.1C-127.829 656.19 -158.359 632.07 -187.889 608.77C-217.909 585.08 -246.249 562.69 -311.909 546.31C-377.569 529.93 -413.099 536.39 -450.719 543.21C-487.77 549.89 -526.019 556.87 -593.799 539.96C-661.579 523.05 -692.129 498.93 -721.659 475.62C-751.659 451.93 -779.999 429.54 -845.669 413.16C-911.329 396.78 -946.869 403.23 -984.479 410.06C-1021.52 416.74 -1059.79 423.71 -1127.57 406.81C-1195.35 389.9 -1225.88 365.78 -1255.43 342.47C-1285.43 318.78 -1313.77 296.39 -1379.43 280.01C-1445.1 263.63 -1480.64 270.08 -1518.25 276.9C-1555.29 283.58 -1593.56 290.55 -1661.34 273.65C-1662.09 273.59 -1662.81 273.37 -1663.46 273C-1664.11 272.63 -1664.67 272.13 -1665.11 271.52C-1665.54 270.91 -1665.84 270.22 -1665.98 269.48C-1666.12 268.75 -1666.1 267.99 -1665.92 267.27C-1665.74 266.55 -1665.4 265.87 -1664.94 265.29C-1664.47 264.71 -1663.88 264.23 -1663.21 263.9C-1662.54 263.57 -1661.8 263.39 -1661.06 263.37C-1660.31 263.35 -1659.57 263.49 -1658.88 263.79C-1593.22 280.17 -1557.68 273.73 -1520.05 266.9C-1483 260.13 -1444.71 253.13 -1376.95 270.03L-1376.96 270Z" fill="#DC410F" stroke="#DC410F" stroke-width="12"/>
<path d="M-466.17 -113.87L-679.24 428.73C-683.38 439.28 -678.42 451.22 -668.02 455.73L29.0102 757.42C35.8402 760.37 43.7202 759.51 49.7402 755.14L582.2 368.67C590.43 362.7 593.21 351.69 588.81 342.53L318.55 -220.08C314.59 -228.33 305.73 -233.08 296.65 -231.81L-449.52 -127.02C-457.04 -125.96 -463.41 -120.94 -466.19 -113.87H-466.17Z" fill="#200020"/>
<path d="M13.2501 -236.85L-644.13 132.9C-654.29 138.62 -657.87 151.51 -652.1 161.64L-374.83 649.13C-370.81 656.2 -363.08 660.32 -354.96 659.71L401.09 603.14C409.34 602.52 416.47 597.13 419.3 589.35L601.85 87.87C605.43 78.03 601.24 67.06 592.01 62.12L33.5101 -237.05C27.1701 -240.44 19.5302 -240.37 13.2501 -236.85Z" fill="#DA0081"/>
</g>
</svg>
